# xmcd
#
# Track frame offsets: 
#        150
#        13919
#        38630
#        53229
#        67938
#        83842
#        100957
#        117347
#        132442
#
# Disc length: 2017 seconds
#
# Revision: 0
# Processed by: cddbd v1.5.2PL0 Copyright (c) Steve Scherf et al.
# Submitted via: ExactAudioCopy v1.3
#
DISCID=7407df09
DTITLE=Jill Fulton - Jill Blue
DYEAR=2019
DGENRE=Blues
TTITLE0=Mean Streak
TTITLE1=Anger
TTITLE2=Python Boots
TTITLE3=Fuel To The Fire
TTITLE4=Santas On The Cell Phone
TTITLE5=Peculiar Kind Of Love
TTITLE6=Backseat
TTITLE7=Naughty Naughty
TTITLE8=Memphis
EXTD=
EXTT0=
EXTT1=
EXTT2=
EXTT3=
EXTT4=
EXTT5=
EXTT6=
EXTT7=
EXTT8=
PLAYORDER=
